<svg width="1024" height="1024" viewBox="0 0 1024 1024" fill="none" xmlns="http://www.w3.org/2000/svg">
    <g clip-path="url(#clip0_113_2)">
        <path d="M512 1024C794.77 1024 1024 794.77 1024 512C1024 229.23 794.77 0 512 0C229.23 0 0 229.23 0 512C0 794.77 229.23 1024 512 1024Z" fill="#6CBC2A"/>
        <path d="M689.43 349C656.234 333.764 621.202 322.9 585.21 316.68C584.882 316.618 584.544 316.66 584.242 316.802C583.94 316.944 583.691 317.178 583.53 317.47C578.751 326.132 574.412 335.03 570.53 344.13C531.736 338.238 492.274 338.238 453.48 344.13C449.58 335.008 445.18 326.108 440.3 317.47C440.133 317.184 439.882 316.955 439.583 316.814C439.283 316.673 438.947 316.627 438.62 316.68C402.639 322.89 367.618 333.755 334.44 349C334.154 349.12 333.913 349.326 333.75 349.59C267.38 448.76 249.2 545.49 258.12 641C258.145 641.235 258.218 641.462 258.333 641.668C258.448 641.874 258.604 642.055 258.79 642.2C297.438 670.829 340.67 692.684 386.64 706.83C386.964 706.927 387.311 706.922 387.632 706.817C387.954 706.712 388.236 706.51 388.44 706.24C398.311 692.803 407.057 678.574 414.59 663.7C414.693 663.496 414.751 663.272 414.762 663.044C414.772 662.816 414.734 662.588 414.65 662.375C414.566 662.163 414.437 661.971 414.274 661.811C414.11 661.652 413.915 661.529 413.7 661.45C399.906 656.181 386.551 649.828 373.76 642.45C373.528 642.314 373.333 642.122 373.192 641.892C373.052 641.662 372.97 641.402 372.954 641.133C372.938 640.864 372.989 640.595 373.102 640.351C373.214 640.106 373.385 639.893 373.6 639.73C376.28 637.73 378.97 635.63 381.53 633.51C381.757 633.323 382.032 633.204 382.324 633.165C382.615 633.126 382.912 633.17 383.18 633.29C466.97 671.55 557.69 671.55 640.49 633.29C640.76 633.161 641.062 633.111 641.359 633.146C641.656 633.182 641.938 633.301 642.17 633.49C644.73 635.6 647.42 637.72 650.17 639.73C650.385 639.891 650.558 640.103 650.672 640.347C650.787 640.591 650.839 640.859 650.825 641.127C650.811 641.396 650.732 641.657 650.593 641.888C650.454 642.119 650.261 642.312 650.03 642.45C637.256 649.899 623.875 656.255 610.03 661.45C609.814 661.531 609.618 661.658 609.455 661.82C609.291 661.983 609.164 662.179 609.082 662.394C609 662.61 608.964 662.84 608.978 663.071C608.991 663.301 609.053 663.526 609.16 663.73C616.819 678.523 625.552 692.735 635.29 706.25C635.488 706.528 635.768 706.737 636.091 706.847C636.414 706.956 636.764 706.961 637.09 706.86C683.123 692.755 726.411 670.898 765.09 642.23C765.279 642.093 765.437 641.916 765.553 641.713C765.668 641.509 765.739 641.283 765.76 641.05C776.44 530.61 747.88 434.67 690.06 349.63C689.931 349.352 689.708 349.129 689.43 349ZM427.09 582.85C401.86 582.85 381.09 559.69 381.09 531.25C381.09 502.81 401.47 479.65 427.09 479.65C452.92 479.65 473.51 503.01 473.09 531.25C473.11 559.69 452.72 582.85 427.09 582.85ZM597.22 582.85C571.99 582.85 551.22 559.69 551.22 531.25C551.22 502.81 571.6 479.65 597.22 479.65C623.05 479.65 643.64 503.01 643.22 531.25C643.23 559.69 623.05 582.85 597.22 582.85Z" fill="#D9D9D9"/>
    </g>
    <defs>
        <clipPath id="clip0_113_2">
            <rect width="1024" height="1024" fill="white"/>
        </clipPath>
    </defs>
</svg>
